<?xml version="1.0" standalone="no"?>
<!DOCTYPE svg PUBLIC "-//W3C//DTD SVG 20010904//EN"
 "http://www.w3.org/TR/2001/REC-SVG-20010904/DTD/svg10.dtd">
<svg version="1.0" xmlns="http://www.w3.org/2000/svg"
 width="1024.000000pt" height="1024.000000pt" viewBox="0 0 1024.000000 1024.000000"
 preserveAspectRatio="xMidYMid meet">
<metadata>
Created by potrace 1.16, written by Peter Selinger 2001-2019
</metadata>
<g transform="translate(0.000000,1024.000000) scale(0.100000,-0.100000)"
fill="#000000" stroke="none">
<path d="M6146 9619 c-10 -33 -36 -322 -36 -406 0 -107 9 -123 72 -123 l41 0
-6 123 c-3 67 -15 185 -27 262 -19 131 -33 177 -44 144z"/>
<path d="M3786 9525 c-3 -8 -15 -91 -27 -183 -20 -158 -22 -313 -5 -341 4 -6
27 -11 51 -11 l43 0 8 67 c6 62 -16 355 -34 442 -8 38 -26 51 -36 26z"/>
<path d="M4371 9172 c-6 -12 -11 -29 -11 -36 0 -24 -36 -60 -71 -71 -41 -14
-50 -40 -16 -49 13 -3 44 -28 70 -55 l45 -48 39 39 c21 21 59 53 85 71 26 18
48 34 48 37 0 3 -23 17 -50 32 -34 19 -56 40 -70 67 -23 45 -52 51 -69 13z"/>
<path d="M6890 9064 c-6 -14 -10 -109 -10 -212 0 -103 -4 -193 -8 -199 -4 -7
-35 -26 -67 -42 -104 -53 -260 -219 -231 -248 14 -15 264 150 304 202 11 13
32 29 46 35 35 13 36 13 30 -5 -17 -45 222 -235 296 -235 11 0 20 3 20 6 0 33
-188 225 -261 267 -45 26 -49 36 -49 147 0 86 -16 260 -26 293 -8 25 -33 21
-44 -9z"/>
<path d="M6229 8979 l-21 -30 28 -30 c16 -16 49 -42 74 -56 62 -37 303 -143
310 -136 15 15 -280 248 -346 273 -19 8 -27 4 -45 -21z"/>
<path d="M6030 8991 c-66 -21 -362 -192 -391 -227 -17 -21 -5 -18 157 35 146
47 267 101 312 137 21 18 22 20 7 42 -16 23 -41 26 -85 13z"/>
<path d="M3667 8915 c-52 -19 -190 -89 -252 -128 -76 -47 -170 -120 -159 -124
29 -10 481 167 490 191 7 19 -12 71 -27 73 -8 1 -31 -5 -52 -12z"/>
<path d="M6145 8919 c-9 -13 -20 -183 -30 -426 -6 -155 -5 -173 10 -173 9 0
34 -9 57 -20 l41 -20 -7 268 c-8 310 -13 349 -43 369 -16 11 -23 11 -28 2z"/>
<path d="M3854 8884 l-19 -36 40 -33 c22 -19 74 -54 116 -79 93 -56 289 -148
289 -137 0 13 -164 166 -229 214 -59 44 -160 107 -171 107 -4 0 -15 -16 -26
-36z"/>
<path d="M3766 8832 c-10 -17 -50 -648 -41 -661 3 -6 21 1 42 15 20 13 48 27
61 31 l25 6 -7 183 c-7 197 -22 393 -32 418 -6 17 -39 22 -48 8z"/>
<path d="M4525 8810 c-4 -6 7 -35 25 -63 18 -29 52 -104 77 -167 24 -63 51
-126 59 -138 9 -13 13 -26 11 -28 -3 -3 -61 -18 -130 -34 -227 -52 -385 -109
-592 -212 -206 -103 -264 -139 -455 -281 -217 -161 -445 -405 -609 -652 -300
-450 -456 -915 -487 -1451 -7 -120 1 -274 14 -274 4 0 29 41 56 90 44 84 49
99 57 193 34 358 56 479 134 718 174 535 558 1050 1004 1348 206 138 438 258
623 325 95 34 402 108 503 121 91 12 88 8 48 83 -20 37 -54 97 -75 134 -22 37
-38 72 -36 77 11 32 454 -292 648 -473 42 -39 97 -90 123 -114 54 -48 59 -72
20 -98 -16 -9 -62 -47 -103 -84 -118 -105 -265 -218 -397 -306 l-122 -81 6
104 6 105 -49 -7 c-153 -21 -463 -121 -623 -200 -240 -119 -484 -324 -648
-545 -220 -297 -335 -593 -378 -967 -18 -165 -21 -206 -12 -220 11 -18 96 -62
102 -54 2 5 12 80 20 167 38 380 118 622 292 886 89 136 165 227 279 338 217
209 413 322 720 414 65 19 132 38 148 42 l29 7 -5 -59 c-4 -60 -31 -127 -85
-213 l-27 -44 35 7 c18 3 57 20 84 38 28 17 97 60 155 96 130 79 236 156 404
290 71 57 146 114 166 127 20 13 54 42 76 65 21 23 56 51 77 61 48 25 53 39
31 81 -29 56 -61 92 -141 159 -43 35 -125 110 -183 166 -58 56 -128 119 -156
140 -28 21 -88 66 -133 100 -95 72 -223 153 -371 233 -86 47 -114 58 -157 59
-29 1 -54 -3 -58 -9z"/>
<path d="M2746 8758 c-38 -51 -103 -195 -127 -283 -12 -44 -28 -102 -35 -130
-8 -27 -14 -68 -14 -90 0 -22 -5 -68 -10 -102 -9 -54 -8 -70 9 -118 39 -109
115 -185 188 -185 l28 0 3 238 c1 130 5 252 8 270 5 34 28 43 38 16 10 -25 6
-368 -5 -484 -12 -137 -12 -400 0 -434 15 -38 44 -33 85 16 41 47 41 50 21
108 -8 24 -20 84 -25 134 -6 49 -13 99 -15 111 -4 16 5 26 46 50 77 45 130
150 131 255 0 165 -119 505 -217 618 -45 52 -74 55 -109 10z"/>
<path d="M7692 8563 c-12 -2 -19 -9 -16 -15 4 -6 -1 -8 -12 -4 -22 6 -52 -9
-41 -21 5 -4 12 -1 18 7 6 10 7 4 2 -20 -3 -19 -14 -46 -25 -59 -10 -13 -18
-30 -18 -37 0 -8 -8 -14 -17 -14 -9 0 -36 -9 -60 -21 -41 -20 -90 -19 -78 2 4
5 -2 9 -12 9 -14 0 -12 5 12 26 l30 26 -33 -22 c-17 -12 -43 -36 -56 -53 -35
-48 -39 -58 -22 -51 23 9 9 -30 -17 -45 -22 -14 -22 -14 -3 8 15 17 16 20 4
16 -25 -10 -60 -113 -69 -205 -9 -96 7 -195 44 -265 26 -48 97 -139 141 -178
61 -56 210 -116 257 -104 21 6 22 4 15 -61 -3 -37 -6 -178 -6 -314 l0 -247
-28 -33 c-16 -18 -32 -41 -35 -51 -9 -23 15 -32 43 -17 25 13 229 177 245 196
6 7 46 14 100 16 136 6 182 41 260 197 30 61 71 198 61 208 -1 1 -18 -2 -37
-7 -18 -6 -62 -10 -96 -10 -79 0 -171 -19 -152 -31 10 -6 8 -9 -9 -9 -13 0
-20 -4 -17 -10 3 -6 -1 -7 -10 -4 -20 8 -68 -36 -102 -94 -21 -35 -25 -52 -21
-93 3 -27 8 -52 11 -55 9 -9 49 16 92 57 73 70 197 169 211 169 25 0 15 -16
-53 -91 -107 -115 -144 -146 -298 -250 l-70 -47 -7 76 c-4 42 -6 171 -5 285 2
235 -7 212 92 220 83 7 155 41 232 110 38 34 87 85 108 112 35 47 76 127 73
143 -1 4 3 18 9 32 16 40 15 155 -2 234 -16 73 -75 192 -83 168 -2 -7 4 -22
14 -34 11 -11 17 -29 16 -40 -2 -12 1 -24 8 -28 7 -5 9 -20 5 -44 -6 -27 -12
-36 -27 -36 -17 0 -20 5 -16 40 l4 40 -43 0 -43 0 0 40 0 40 -40 0 c-33 0 -40
3 -40 20 0 13 -7 20 -20 20 -13 0 -20 7 -20 20 0 13 -7 20 -20 20 -17 0 -20 7
-20 40 0 39 9 47 43 41 5 -1 6 3 2 9 -3 5 0 10 8 10 8 0 17 -7 21 -15 3 -8 14
-15 25 -15 10 0 21 -7 25 -15 3 -8 12 -15 21 -15 9 0 15 -9 15 -22 0 -19 2
-20 10 -8 8 12 2 23 -27 48 -20 18 -43 30 -50 28 -7 -3 -13 -1 -13 4 0 15 -43
35 -48 21 -4 -13 -32 -15 -32 -2 0 5 6 12 13 14 6 3 2 6 -10 6 -13 1 -23 5
-23 11 0 17 -74 30 -170 29 -52 -1 -105 -4 -118 -6z m139 -330 c7 -20 7 -44 0
-82 -6 -30 -11 -101 -11 -158 0 -82 3 -103 14 -103 23 0 96 61 145 120 45 56
73 69 79 38 6 -33 -92 -147 -211 -243 -32 -26 -38 -38 -47 -95 -7 -47 -16 -71
-35 -89 l-25 -26 0 71 c0 80 -4 87 -98 187 -72 78 -102 123 -102 153 0 33 27
37 47 7 55 -79 140 -153 178 -153 4 0 5 84 3 188 -2 157 -1 189 12 199 24 20
40 15 51 -14z"/>
<path d="M6887 8530 c-16 -27 -18 -63 -20 -346 l-2 -316 40 -35 40 -34 8 43
c4 24 6 180 5 348 -3 240 -7 311 -19 334 -19 40 -31 42 -52 6z"/>
<path d="M5340 8400 c-22 -19 -23 -21 -5 -40 10 -11 26 -20 36 -20 10 0 60
-15 111 -34 51 -19 143 -48 205 -65 185 -52 446 -156 586 -234 243 -136 520
-358 715 -572 74 -81 238 -302 231 -310 -3 -2 -16 2 -29 8 -17 9 -24 20 -22
35 4 26 -23 57 -40 46 -8 -5 -4 -10 10 -15 29 -11 28 -25 -3 -33 -16 -4 -25
-13 -25 -26 0 -11 -4 -20 -10 -20 -5 0 -10 -9 -10 -20 0 -11 7 -20 15 -20 11
0 15 -12 15 -50 l0 -50 40 0 c33 0 40 3 40 20 0 11 5 20 10 20 6 0 10 18 10
40 0 22 5 40 10 40 6 0 10 -5 10 -11 0 -7 6 -17 14 -23 18 -14 68 -107 62
-113 -3 -3 -11 7 -18 23 -7 16 -18 33 -25 37 -7 4 -13 14 -13 22 0 8 -4 17
-10 20 -18 11 -10 -25 10 -45 11 -11 20 -24 20 -29 0 -10 -48 -21 -91 -21
l-29 0 0 -120 0 -120 40 0 c33 0 40 -3 40 -20 0 -13 7 -20 20 -20 17 0 20 7
20 40 l0 40 45 0 c38 0 45 3 50 23 3 12 2 34 -4 47 -5 14 -10 19 -10 12 -1 -7
-6 -10 -12 -6 -6 3 -8 16 -5 27 3 12 0 27 -5 34 -6 7 -9 18 -7 25 8 22 153
-284 196 -412 75 -227 113 -435 128 -702 8 -152 1 -205 -32 -220 -13 -6 -26
-9 -28 -7 -3 2 -7 94 -10 204 -3 110 -10 214 -15 230 -9 29 -9 29 -10 -12 -1
-42 -21 -63 -21 -23 0 13 -7 20 -20 20 -17 0 -20 7 -20 40 0 22 -4 40 -10 40
-6 0 -10 33 -10 80 0 73 2 80 20 80 12 0 20 7 21 18 0 14 2 14 9 -3 8 -18 9
-18 9 6 1 14 -2 29 -6 32 -3 4 -8 22 -10 40 -2 17 -10 52 -17 77 -13 40 -15
42 -15 15 0 -16 3 -37 8 -45 14 -21 6 -27 -29 -22 -21 3 -30 10 -30 23 0 17
-8 19 -60 19 l-60 0 0 -80 c0 -73 2 -80 20 -80 18 0 20 -7 20 -80 0 -73 -2
-80 -20 -80 -13 0 -20 -7 -20 -20 0 -17 -7 -20 -40 -20 l-40 0 0 -40 c0 -22
-4 -40 -10 -40 -5 0 -10 -9 -10 -20 0 -11 -5 -20 -11 -20 -7 0 -10 -18 -9 -47
6 -115 1 -150 -20 -156 -11 -3 -20 -12 -20 -21 0 -23 8 -20 47 19 41 41 76 44
81 7 2 -15 8 -22 18 -18 17 6 34 -23 34 -58 0 -14 5 -26 10 -26 6 0 10 -7 10
-15 0 -18 37 -58 63 -68 9 -3 17 -17 17 -30 0 -21 6 -26 43 -32 56 -10 67 -8
156 27 82 33 291 91 299 83 6 -5 -111 -200 -176 -295 -25 -36 -70 -105 -100
-155 -30 -49 -82 -128 -116 -175 -35 -47 -114 -161 -176 -255 -62 -93 -134
-195 -159 -225 -26 -30 -59 -73 -75 -95 -16 -22 -37 -49 -47 -60 -11 -11 -45
-54 -77 -95 -82 -105 -281 -304 -382 -382 -266 -204 -575 -362 -870 -444 -47
-13 -94 -24 -105 -24 -23 1 4 13 225 100 338 134 543 257 805 481 100 85 250
237 311 314 21 28 42 51 45 53 24 11 -113 272 -142 272 -6 0 -7 5 -4 10 3 6 1
10 -5 10 -6 0 -9 4 -6 9 3 5 -1 11 -9 15 -8 3 -15 12 -15 21 0 8 -4 15 -10 15
-5 0 -10 9 -10 20 0 12 -7 20 -17 20 -15 0 -16 2 -3 10 8 5 10 10 4 10 -6 0
-11 7 -11 15 0 8 -10 37 -23 64 l-22 49 -27 -32 c-41 -47 -94 -128 -94 -142 0
-7 -4 -12 -8 -11 -13 3 -59 -65 -52 -77 3 -6 3 -8 -1 -4 -4 3 -43 -33 -87 -81
-43 -49 -89 -95 -102 -104 -13 -9 -46 -34 -73 -57 -62 -53 -80 -67 -132 -108
-24 -20 -39 -39 -35 -45 3 -7 3 -9 -2 -5 -8 8 -61 -17 -145 -68 -125 -76 -398
-181 -570 -219 -103 -22 -409 -31 -535 -16 -211 27 -411 89 -633 197 -233 113
-373 211 -550 386 -51 51 -111 116 -135 146 -23 30 -91 116 -150 191 -59 75
-111 147 -114 160 -6 25 16 51 44 51 17 0 49 -36 78 -88 46 -82 243 -320 343
-414 281 -264 507 -399 827 -493 198 -58 382 -79 582 -65 250 17 413 58 636
161 363 168 649 424 862 774 37 61 69 112 71 114 9 10 35 -30 114 -179 74
-138 161 -280 204 -334 15 -18 16 -18 49 15 41 42 122 146 170 219 20 30 55
81 79 112 24 31 88 117 144 190 149 198 318 448 301 448 -2 0 -32 -9 -66 -20
-34 -11 -80 -24 -102 -30 -36 -10 -54 -30 -27 -30 6 0 0 -13 -15 -28 -15 -15
-27 -35 -27 -43 0 -8 -13 -28 -30 -44 -16 -15 -27 -32 -24 -37 3 -4 0 -8 -5
-8 -6 0 -11 -8 -11 -18 0 -15 -13 -22 -55 -31 -35 -8 -55 -18 -55 -27 0 -8 -4
-14 -9 -14 -5 0 -13 -9 -16 -20 -3 -11 -13 -20 -22 -20 -20 0 -53 -38 -53 -62
0 -10 -7 -18 -15 -18 -12 0 -15 -13 -15 -60 0 -53 -2 -60 -20 -60 -13 0 -20
-7 -20 -19 0 -11 -5 -21 -11 -23 -6 -2 -13 -32 -16 -66 -5 -57 -4 -65 16 -78
18 -13 19 -19 10 -37 -21 -40 -44 -55 -87 -55 l-42 -1 -112 222 c-149 295
-198 409 -269 617 -56 167 -67 210 -53 210 13 0 114 -71 217 -154 59 -46 116
-87 127 -91 15 -5 34 2 61 19 21 15 39 23 39 20 0 -4 9 1 20 11 28 25 29 120
1 144 -11 9 -21 30 -23 46 -2 19 -9 30 -18 30 -12 0 -16 24 -22 129 -4 71 -9
130 -11 132 -2 2 -3 -88 -3 -200 1 -113 -2 -208 -7 -212 -4 -4 -22 0 -41 8
l-33 16 5 174 c4 164 2 181 -27 328 -58 283 -141 481 -309 735 -70 105 -115
159 -237 281 -105 105 -177 168 -240 209 -182 119 -356 196 -573 255 -144 39
-163 38 -197 -2 -25 -30 -26 -32 -8 -49 10 -9 76 -33 147 -53 226 -64 391
-139 583 -267 236 -158 475 -466 610 -784 80 -190 149 -512 141 -662 l-3 -62
-80 50 c-72 45 -267 149 -280 149 -31 0 84 -414 183 -660 17 -41 34 -93 38
-114 6 -34 5 -38 -9 -33 -22 8 -73 -47 -161 -175 -286 -417 -685 -696 -1117
-782 -245 -49 -372 -52 -614 -15 -307 47 -632 206 -894 437 -74 65 -281 294
-328 363 -17 25 -48 58 -67 73 -20 15 -36 31 -36 36 0 11 61 34 180 68 l95 27
3 44 c3 41 0 46 -50 95 -30 28 -89 73 -133 101 -44 27 -146 94 -227 150 -146
100 -204 137 -456 294 -155 97 -140 99 -221 -28 -142 -222 -227 -421 -292
-686 -28 -110 -66 -253 -85 -318 -19 -66 -34 -123 -34 -128 0 -5 12 -12 27
-15 78 -19 111 -65 133 -184 13 -75 29 -120 40 -120 11 0 33 30 93 124 45 71
141 186 156 186 3 0 25 -31 48 -68 68 -111 211 -311 284 -397 170 -203 438
-433 669 -576 210 -130 365 -203 601 -283 338 -113 773 -153 1099 -100 648
104 1195 407 1642 909 54 60 163 209 275 375 102 151 217 314 254 362 92 118
176 241 296 433 158 253 253 428 240 441 -3 4 -26 2 -49 -4 -24 -6 -102 -20
-173 -31 -72 -11 -137 -22 -146 -26 -13 -5 -15 16 -16 162 -2 266 -33 466
-108 697 -142 432 -381 813 -717 1142 -242 238 -539 434 -859 569 -121 51
-374 133 -490 159 -144 32 -217 34 -249 6z m-2392 -2757 c75 -47 173 -108 217
-135 190 -117 475 -304 475 -313 0 -8 -163 -54 -265 -75 -112 -24 -195 -50
-195 -62 0 -4 9 -8 20 -8 31 0 42 -32 26 -77 -8 -21 -35 -103 -61 -183 -26
-80 -59 -179 -73 -220 -15 -41 -26 -83 -24 -93 2 -19 97 -160 204 -305 33 -45
58 -85 56 -88 -8 -8 -179 171 -258 269 -80 100 -172 234 -220 322 -19 33 -42
73 -53 88 l-19 28 -36 -28 c-68 -50 -182 -158 -188 -175 -9 -29 -22 -21 -33
19 -6 20 -27 54 -47 74 l-37 38 20 73 c11 40 37 134 57 208 20 74 46 168 57
207 19 70 143 373 194 473 14 28 30 50 35 50 6 0 72 -39 148 -87z"/>
<path d="M2682 5363 c-20 -49 -77 -220 -107 -328 -10 -33 -30 -102 -46 -153
-16 -51 -29 -106 -29 -122 0 -39 30 -56 71 -41 47 16 178 101 190 122 12 23
35 25 43 3 3 -8 11 -12 17 -8 8 4 9 3 5 -4 -6 -11 39 -88 71 -120 7 -7 13 -17
13 -21 0 -16 59 -73 69 -67 7 5 8 0 4 -11 -6 -15 -4 -16 9 -5 9 7 21 11 28 10
14 -4 51 86 75 182 10 41 26 99 37 129 21 63 23 90 3 46 l-14 -30 -1 33 c0 17
-4 32 -10 32 -5 0 -10 16 -10 35 0 34 -27 75 -50 75 -6 0 -10 27 -10 60 0 53
-2 60 -20 60 -13 0 -20 7 -20 20 0 13 -7 20 -20 20 -13 0 -20 7 -20 20 0 17
-7 20 -40 20 -33 0 -40 -3 -40 -20 0 -18 -7 -20 -70 -20 -57 0 -70 3 -70 16 0
25 -25 45 -40 31 -10 -10 -11 -5 -5 23 4 19 11 37 16 38 12 5 12 22 0 22 -5 0
-18 -21 -29 -47z"/>
<path d="M3280 5353 c0 -27 -20 -72 -20 -45 0 6 -4 12 -10 12 -5 0 -10 -24
-10 -54 0 -47 3 -54 23 -60 l22 -7 -22 -9 c-36 -15 -28 -33 10 -26 17 3 62 8
100 12 67 7 94 24 37 24 -23 0 -30 4 -30 20 0 11 -4 20 -10 20 -5 0 -10 -8
-10 -19 0 -12 -9 -20 -23 -23 -20 -4 -23 -1 -19 19 2 13 8 23 13 23 5 0 9 9 9
20 0 11 5 20 10 20 6 0 10 -4 10 -10 0 -5 7 -10 16 -10 11 0 14 6 9 23 -3 12
-3 17 2 11 10 -13 55 -26 48 -14 -7 11 -86 65 -126 85 -29 15 -29 15 -29 -12z"/>
<path d="M1855 8029 c20 -156 96 -353 162 -421 29 -30 36 -44 37 -83 2 -56 25
-79 124 -127 57 -27 71 -30 132 -26 40 3 86 14 110 25 39 20 41 20 51 2 5 -10
39 -58 75 -106 36 -49 80 -112 97 -140 30 -49 47 -66 47 -44 0 5 16 30 35 56
l36 46 -78 86 c-113 125 -161 164 -189 157 -18 -5 -42 9 -108 60 -88 70 -155
141 -225 240 -42 61 -51 86 -28 86 7 0 80 -69 164 -152 83 -84 165 -161 182
-171 l31 -18 15 35 c9 20 15 67 15 109 0 102 -36 173 -133 263 -82 76 -112 92
-239 135 -75 25 -116 32 -207 36 l-113 6 7 -54z"/>
<path d="M8475 7699 c-46 -40 -44 -62 6 -99 l41 -30 26 21 c14 11 32 29 39 39
13 18 12 24 -9 49 -13 16 -33 34 -45 40 -19 9 -28 6 -58 -20z"/>
<path d="M8771 7691 c-12 -41 -133 -287 -196 -399 -19 -35 -35 -72 -35 -82 0
-29 -11 -50 -26 -50 -8 0 -14 -7 -14 -14 0 -8 -11 -27 -25 -42 -13 -14 -27
-35 -30 -45 -4 -11 -11 -19 -16 -19 -6 0 -8 -4 -5 -9 3 -4 -3 -16 -14 -26 -27
-24 -132 -188 -186 -289 -111 -209 -148 -354 -147 -576 1 -164 21 -297 44
-292 8 2 38 6 68 9 45 5 56 3 67 -12 18 -24 17 -109 0 -200 -10 -49 -11 -76
-4 -89 9 -17 12 -15 23 18 7 20 38 79 69 130 31 52 56 102 56 110 0 17 -60
239 -105 386 -25 83 -26 145 -3 138 6 -2 45 -95 87 -206 41 -111 78 -202 82
-202 12 0 72 144 129 315 92 272 158 555 181 782 7 67 16 120 20 117 15 -9 20
-174 10 -316 -18 -245 -111 -667 -186 -842 -9 -21 -15 -40 -13 -41 2 -2 27 5
55 15 87 31 200 101 279 173 63 59 74 65 74 46 0 -15 -29 -51 -87 -108 -80
-78 -101 -93 -226 -155 -137 -68 -138 -69 -197 -147 -32 -44 -72 -107 -87
-141 -44 -98 -228 -460 -295 -582 -173 -313 -398 -607 -669 -877 -185 -184
-317 -286 -684 -530 -274 -183 -453 -280 -642 -353 -100 -38 -95 -51 18 -43
146 11 317 70 433 149 34 23 99 63 146 88 152 82 282 160 435 260 169 111 180
116 395 189 169 57 437 176 453 202 14 23 0 69 -21 69 -30 0 -210 -65 -342
-124 -69 -30 -127 -51 -128 -45 -2 5 29 44 70 87 346 363 590 727 814 1212 41
91 82 179 90 195 12 26 14 27 14 8 0 -28 4 -28 105 -3 369 91 601 409 622 850
11 227 -29 426 -145 725 -120 311 -267 625 -293 625 -3 0 -11 -18 -18 -39z"/>
<path d="M6767 7603 c-13 -12 -7 -43 7 -43 9 0 17 -15 21 -40 5 -30 11 -40 26
-40 12 0 19 -7 19 -20 0 -13 7 -20 20 -20 13 0 20 -7 20 -20 0 -13 7 -20 20
-20 13 0 20 -7 20 -20 0 -13 7 -20 20 -20 13 0 20 -7 20 -20 0 -13 7 -20 20
-20 13 0 20 -7 20 -20 0 -11 5 -20 10 -20 6 0 10 9 10 20 0 21 20 28 21 8 0
-7 4 -4 8 7 10 23 -5 59 -20 50 -5 -4 -8 -1 -7 6 2 6 -2 13 -9 16 -7 3 -10 -4
-7 -19 3 -14 -1 -10 -10 11 -9 18 -13 38 -9 45 4 6 -2 4 -12 -4 -10 -8 -16
-10 -12 -4 14 24 -149 194 -186 194 -2 0 -7 -3 -10 -7z"/>
<path d="M1523 7416 c-86 -40 -103 -100 -58 -203 30 -66 51 -93 75 -93 15 0
18 -18 23 -152 4 -84 9 -180 13 -213 l6 -60 -29 35 c-15 19 -62 73 -103 120
-132 149 -140 162 -124 190 20 37 17 77 -11 134 -37 76 -89 126 -131 126 -52
0 -122 -38 -155 -83 -31 -43 -39 -100 -16 -114 7 -4 28 -29 46 -56 52 -77 70
-90 116 -83 22 2 49 8 61 11 17 5 29 -5 64 -52 24 -32 74 -89 110 -128 36 -38
76 -85 89 -103 l23 -33 -29 7 c-15 4 -95 28 -178 54 -82 27 -167 51 -187 55
-33 6 -39 12 -48 45 -12 45 -74 105 -119 115 -98 21 -200 -99 -172 -202 14
-51 45 -98 77 -120 40 -25 120 -23 166 5 37 23 66 80 53 102 -8 13 -2 13 37
-4 58 -25 240 -76 316 -88 39 -6 72 -15 72 -19 0 -4 -44 -17 -97 -29 -205 -46
-480 -124 -497 -141 -17 -16 4 -24 63 -22 70 1 304 62 422 109 48 19 92 34
100 34 7 0 -25 -39 -72 -87 -46 -49 -114 -122 -151 -163 l-66 -74 -40 18 c-56
25 -93 15 -142 -41 -64 -73 -63 -88 7 -184 67 -92 74 -99 102 -99 36 0 115 53
141 94 26 43 25 74 -2 130 l-21 44 115 124 c63 67 132 141 152 163 l37 40 -6
-40 c-3 -22 -8 -111 -11 -198 l-6 -159 -59 -57 c-38 -37 -59 -65 -59 -80 0
-37 58 -148 89 -171 62 -43 169 -12 206 60 19 36 19 54 1 83 -8 12 -17 39 -20
59 -7 39 -41 74 -82 84 -23 6 -23 6 -17 147 3 78 8 169 12 202 l6 60 65 -80
c79 -98 141 -166 284 -316 114 -118 263 -294 313 -370 l28 -43 7 130 c6 125 6
130 -17 159 -47 62 -185 195 -358 343 -174 151 -262 232 -249 232 4 0 25 -7
47 -14 22 -8 119 -20 215 -27 l175 -12 33 -38 c56 -65 145 -63 217 5 46 44 47
87 3 178 -37 75 -70 98 -139 98 -80 0 -129 -51 -144 -151 l-7 -46 -51 14 c-29
8 -108 19 -177 24 -201 17 -203 19 -75 63 61 21 146 55 190 75 45 21 93 41
108 45 20 5 27 13 27 32 0 13 -7 27 -15 31 -22 8 -159 -48 -305 -125 -85 -45
-120 -60 -110 -45 19 26 213 280 238 312 l20 24 43 -31 c68 -51 140 -39 193
30 38 51 41 78 12 118 -13 19 -35 55 -48 78 -23 44 -49 63 -101 76 -35 8 -82
-24 -128 -87 -22 -31 -29 -51 -29 -88 0 -26 5 -51 12 -55 8 -5 2 -16 -18 -33
-17 -14 -76 -88 -132 -163 -99 -132 -133 -171 -119 -134 4 10 7 100 7 202 l0
184 38 19 c53 27 74 54 79 104 5 39 2 47 -28 77 -25 24 -33 40 -31 61 7 67
-71 88 -165 45z m153 -100 c13 -52 -18 -89 -86 -101 -29 -5 -39 -2 -59 19 -32
33 -22 52 41 81 69 32 96 32 104 1z m-442 -131 c10 -8 22 -12 26 -10 9 6 -5
-63 -15 -73 -3 -3 -29 -16 -58 -28 -57 -24 -67 -21 -87 26 -14 35 -5 51 45 82
36 21 63 23 89 3z m890 -28 c15 -42 -3 -77 -53 -104 l-45 -23 -33 32 c-18 17
-33 38 -33 44 0 15 118 83 140 80 8 -1 19 -14 24 -29z m-1130 -348 c28 -33 32
-50 16 -80 -12 -22 -61 -49 -89 -49 -35 0 -71 22 -71 43 0 20 89 117 108 117
5 0 22 -14 36 -31z m1334 -174 c21 -45 15 -63 -28 -85 -54 -28 -81 -25 -115
10 -23 24 -27 34 -19 48 16 25 74 52 115 52 29 0 38 -5 47 -25z m-1124 -486
c41 -32 31 -58 -34 -92 l-55 -28 -22 26 c-27 31 -29 66 -5 87 38 33 79 36 116
7z m442 -154 c15 -23 15 -27 0 -50 -21 -32 -87 -52 -121 -37 -31 14 -43 58
-22 79 15 15 63 30 104 32 14 1 29 -9 39 -24z"/>
<path d="M3071 7158 c-87 -122 -196 -322 -186 -338 4 -6 2 -9 -4 -8 -14 4 -96
-182 -150 -338 -51 -150 -97 -364 -115 -542 -8 -75 -14 -138 -13 -139 4 -4
116 135 141 175 19 30 32 42 42 38 9 -3 20 -6 25 -6 5 0 9 -7 9 -15 0 -8 4
-15 9 -15 5 0 17 -7 26 -16 38 -38 281 -191 290 -182 3 2 9 58 15 124 6 65 19
172 31 237 11 65 17 123 13 130 -4 7 -3 8 1 4 5 -4 17 16 26 45 10 29 29 84
43 123 27 71 23 88 -15 78 -17 -5 -19 1 -19 61 0 59 -2 66 -20 66 -11 0 -20 6
-20 14 0 29 -35 22 -66 -14 l-32 -35 -43 16 c-31 11 -45 22 -47 37 -2 16 -10
22 -28 22 -23 0 -24 3 -24 66 0 67 13 94 44 94 11 0 16 9 16 30 0 17 5 30 10
30 6 0 10 8 10 18 0 10 9 24 20 32 14 10 20 26 20 52 0 31 4 38 20 38 18 0 20
7 20 58 0 32 -5 63 -12 70 -9 9 -9 12 1 12 7 0 9 4 6 10 -3 5 5 22 19 37 24
26 33 43 21 43 -2 0 -40 -51 -84 -112z"/>
<path d="M4877 7023 c-14 -4 -8 -11 28 -34 78 -50 142 -140 228 -322 46 -97
46 -98 24 -106 -12 -5 -35 -23 -51 -40 l-29 -30 188 -3 c103 -2 190 -1 195 2
4 3 19 29 34 57 14 29 47 85 74 125 51 80 88 155 80 164 -3 3 -31 -11 -61 -30
-31 -20 -58 -36 -61 -36 -3 0 -18 24 -32 53 -49 96 -107 176 -140 192 -26 12
-73 15 -246 14 -117 -1 -221 -3 -231 -6z"/>
<path d="M4763 6963 c-36 -7 -74 -52 -140 -169 -34 -60 -75 -129 -92 -154
l-30 -45 127 -65 c70 -36 148 -80 174 -97 l47 -33 32 58 c18 31 61 101 96 154
35 54 63 101 63 104 0 15 -101 172 -127 196 -29 28 -93 59 -115 57 -7 -1 -23
-4 -35 -6z"/>
<path d="M7898 6794 c-27 -13 -48 -28 -48 -32 0 -12 94 -102 107 -102 6 0 29
21 49 46 l38 46 -37 34 c-20 19 -42 34 -49 34 -7 -1 -34 -12 -60 -26z"/>
<path d="M6840 6779 c0 -16 -5 -20 -19 -16 -14 3 -18 1 -14 -10 3 -8 12 -12
19 -9 8 3 14 1 14 -3 0 -5 -6 -11 -12 -14 -10 -3 -10 -7 -1 -19 7 -8 10 -18 6
-21 -3 -4 1 -7 10 -7 9 0 19 5 22 10 8 13 25 13 25 -1 0 -5 -4 -8 -9 -4 -11 6
-36 -33 -27 -43 3 -3 6 0 6 6 0 7 4 12 10 12 9 0 34 -71 35 -102 0 -9 3 -20 8
-24 4 -4 7 -18 7 -31 0 -21 4 -23 54 -23 l53 0 -7 38 c-13 66 -26 87 -65 110
-11 6 -14 12 -7 12 7 0 12 15 12 40 0 33 -3 40 -20 40 -13 0 -20 7 -20 20 0
13 -7 20 -20 20 -13 0 -20 7 -20 20 0 13 -7 20 -20 20 -14 0 -20 -7 -20 -21z"/>
<path d="M6146 6751 c-24 -51 -61 -86 -108 -101 -45 -14 -48 -25 -10 -33 36
-7 94 -64 119 -118 l20 -43 17 35 c21 45 90 117 124 131 24 10 25 12 7 16 -37
8 -76 44 -106 98 -17 30 -34 54 -37 54 -4 0 -15 -18 -26 -39z"/>
<path d="M3860 6510 c-7 -17 -32 -48 -56 -69 l-43 -37 29 -18 c17 -9 44 -37
60 -62 l31 -44 33 47 c18 27 47 56 66 65 l33 17 -26 12 c-26 12 -97 93 -97
111 0 19 -19 6 -30 -22z"/>
<path d="M5620 6469 c-25 -17 -99 -58 -165 -91 -66 -33 -122 -62 -124 -64 -2
-2 16 -34 41 -71 25 -38 69 -110 98 -160 l52 -93 100 0 c108 0 172 12 203 38
31 25 55 64 55 87 0 11 -27 66 -59 122 -33 56 -78 138 -101 182 -23 45 -45 81
-49 81 -3 0 -26 -14 -51 -31z"/>
<path d="M4250 6396 c0 -16 44 -50 84 -66 l28 -10 -20 -33 c-55 -93 -102 -187
-102 -206 0 -26 25 -77 83 -169 24 -37 72 -114 108 -171 l64 -104 6 74 c4 47
15 91 29 119 53 106 176 309 188 310 7 0 35 -11 62 -25 27 -14 52 -25 55 -25
11 0 -24 68 -74 143 -29 42 -62 100 -73 127 l-21 50 -208 0 c-175 0 -209 -2
-209 -14z"/>
<path d="M6330 6340 c-11 -22 -34 -55 -50 -73 -27 -31 -44 -41 -105 -62 -16
-5 -11 -10 29 -25 59 -23 87 -48 118 -106 12 -24 25 -44 28 -44 3 0 16 21 29
46 27 49 68 86 115 101 40 12 43 29 9 36 -44 9 -76 40 -112 106 -18 34 -34 61
-36 61 -3 0 -14 -18 -25 -40z"/>
<path d="M3774 6069 c-25 -56 -68 -97 -109 -105 -42 -8 -45 -19 -6 -27 39 -8
83 -48 112 -101 13 -26 27 -46 31 -46 3 0 11 15 17 33 15 44 67 93 116 110
l39 14 -29 7 c-49 12 -86 47 -111 103 -13 29 -28 53 -32 53 -5 0 -17 -19 -28
-41z"/>
<path d="M5319 6033 c-28 -31 -53 -73 -123 -210 l-48 -93 55 -87 c30 -49 74
-123 97 -165 24 -43 47 -78 50 -78 4 0 5 31 2 68 l-4 69 53 6 c30 4 84 7 121
7 60 0 69 3 96 29 16 16 48 67 72 113 24 46 67 123 97 173 29 49 53 93 53 96
0 4 -15 0 -32 -9 -27 -14 -71 -18 -240 -20 l-208 -4 -1 49 c0 26 -4 56 -7 66
-7 16 -10 15 -33 -10z"/>
<path d="M4650 5903 c-17 -21 -45 -66 -62 -101 -36 -72 -40 -128 -14 -183 28
-60 56 -67 267 -72 l186 -5 7 97 c3 53 6 142 6 199 l0 102 -179 0 -180 0 -31
-37z"/>
<path d="M1178 5714 c-16 -3 -28 -10 -28 -15 0 -5 -7 -9 -15 -9 -8 0 -15 -5
-15 -11 0 -5 -5 -7 -12 -3 -7 5 -9 2 -5 -9 4 -11 2 -14 -7 -11 -13 5 -29 -44
-56 -171 -6 -27 -13 -59 -15 -70 -40 -160 -23 -538 31 -710 9 -27 37 -90 62
-139 97 -189 283 -322 506 -363 96 -17 250 -12 341 13 45 12 156 54 182 69 2
1 -23 29 -54 63 -65 72 -79 75 -189 41 -115 -36 -178 -49 -189 -38 -19 19 11
41 103 79 185 76 187 97 14 130 -55 10 -118 24 -141 30 -37 10 -45 8 -70 -9
-43 -31 -176 -91 -200 -91 -26 0 -28 30 -3 53 9 8 42 26 72 40 35 15 49 27 40
30 -8 3 -73 13 -144 22 -159 20 -196 34 -196 71 0 26 1 26 43 20 23 -4 71 -9
107 -12 57 -5 63 -4 48 9 -10 8 -19 29 -20 48 -4 50 22 49 79 -4 26 -24 62
-51 78 -59 24 -12 149 -44 291 -73 46 -10 39 12 -32 106 -61 80 -84 95 -167
114 -84 19 -339 101 -380 122 -32 16 -35 55 -4 61 10 2 81 -17 156 -42 146
-49 231 -66 231 -48 0 6 -19 35 -42 65 -24 31 -79 102 -122 159 -44 57 -101
128 -126 158 -67 80 -118 153 -135 193 l-14 35 37 -11 c46 -14 97 -65 233
-232 59 -71 123 -148 142 -170 20 -22 37 -43 37 -47 0 -5 4 -8 8 -8 5 0 16 62
26 138 28 223 27 220 55 202 20 -12 19 -130 -5 -376 l-6 -61 83 -87 c71 -75
84 -85 91 -70 4 11 23 120 43 244 42 262 53 310 71 310 41 0 42 -152 4 -375
-11 -66 -23 -154 -27 -196 l-6 -75 88 -92 c67 -70 92 -91 106 -87 32 10 77
-30 87 -78 l10 -42 1 41 c1 32 -5 46 -25 65 -47 44 -57 75 -50 159 5 66 17
125 40 198 5 14 3 22 -4 22 -6 0 -8 -4 -5 -10 3 -5 2 -10 -4 -10 -6 0 -8 -6
-5 -14 3 -7 -2 -16 -10 -19 -14 -6 -16 9 -16 108 0 78 4 118 13 127 35 36 48
72 49 128 0 33 5 57 9 54 5 -3 9 -11 9 -18 0 -8 6 -18 13 -24 7 -6 14 -28 15
-49 4 -55 13 -55 11 1 -2 37 -11 61 -47 114 -125 187 -237 269 -453 327 -174
47 -525 86 -621 69z"/>
<path d="M6285 5595 c-60 -19 -222 -84 -358 -144 -137 -61 -250 -111 -253
-111 -2 0 -55 -23 -117 -51 -130 -59 -371 -141 -472 -160 -116 -22 -244 -17
-385 14 -68 15 -129 25 -135 23 -5 -2 0 -5 13 -5 12 -1 22 -6 22 -12 0 -5 14
-15 30 -20 28 -10 41 -29 20 -29 -5 0 -10 -7 -10 -15 0 -11 -12 -15 -42 -16
-36 -1 -39 -2 -18 -9 l25 -7 -30 -5 c-16 -3 416 -6 962 -7 l992 -1 12 23 c6
12 21 32 32 44 25 28 19 77 -22 166 -15 34 -36 84 -46 110 -12 33 -21 44 -26
35 -7 -10 -9 -10 -9 1 0 8 -8 20 -17 28 -10 8 -12 11 -4 7 11 -6 13 -3 6 12
-4 10 -9 41 -11 68 -4 72 -12 96 -32 96 -9 -1 -66 -16 -127 -35z"/>
<path d="M9085 5504 c-27 -19 -51 -38 -53 -42 -1 -4 20 -29 47 -56 l49 -48 53
42 c30 23 55 45 57 49 3 9 -44 53 -78 73 -23 14 -28 13 -75 -18z"/>
<path d="M3580 5476 c8 -8 44 -29 80 -47 36 -18 83 -44 105 -59 22 -15 58 -39
80 -53 28 -19 41 -23 44 -15 2 7 8 15 12 18 5 3 10 21 11 40 3 28 -1 35 -21
40 -14 3 -27 12 -29 19 -4 11 4 13 37 8 22 -3 41 -3 41 -2 0 14 -262 65 -329
65 -39 0 -43 -2 -31 -14z"/>
<path d="M8801 5362 c-6 -12 -21 -52 -32 -89 -26 -82 -58 -116 -131 -138 -30
-8 -63 -22 -74 -29 -18 -14 -17 -15 11 -22 54 -13 122 -53 152 -88 16 -19 37
-60 47 -91 11 -30 23 -55 27 -55 11 0 33 43 49 95 17 56 33 70 122 117 43 22
78 44 78 48 0 4 -21 13 -47 19 -113 29 -132 48 -153 158 -7 35 -18 70 -25 80
-11 15 -13 15 -24 -5z"/>
<path d="M3905 5080 c-4 -6 -21 -17 -38 -24 -28 -13 4 -14 273 -15 197 0 300
3 290 9 -9 5 -52 7 -101 3 -63 -4 -98 -2 -135 10 -61 19 -280 32 -289 17z"/>
<path d="M3897 4931 c-17 -6 -16 -8 8 -19 14 -7 46 -12 70 -12 24 0 46 -4 49
-9 3 -5 23 -8 44 -6 196 18 401 20 416 4 6 -5 17 -9 25 -8 11 0 10 3 -4 9 -16
7 -12 9 18 9 23 1 36 -3 32 -9 -4 -6 14 -10 46 -10 29 0 49 3 45 7 -14 15 90
36 182 37 53 1 84 -1 73 -6 -32 -11 -25 -19 17 -17 20 0 254 0 518 -1 265 -2
488 1 495 6 21 13 222 14 237 2 12 -11 30 -14 83 -17 39 -2 28 -45 -14 -59
-29 -9 -25 -10 34 -11 l66 -1 52 60 52 60 -1263 -1 c-695 0 -1271 -4 -1281 -8z"/>
<path d="M9226 4849 c-72 -61 -177 -112 -264 -129 -26 -4 -132 -6 -237 -3
-222 6 -296 -5 -413 -63 -150 -74 -282 -242 -282 -361 0 -29 1 -53 3 -53 1 0
43 15 92 33 74 28 94 40 112 68 50 77 52 78 46 32 l-6 -43 54 16 c77 23 82 27
101 81 10 27 29 60 43 73 30 28 31 20 6 -53 -15 -44 -17 -57 -7 -57 25 0 298
80 356 105 33 14 62 25 65 25 12 0 3 -38 -12 -52 -28 -25 -141 -78 -238 -113
-49 -18 -169 -61 -265 -95 -210 -75 -280 -105 -280 -120 0 -24 103 -119 153
-141 46 -21 66 -24 187 -24 124 1 141 3 205 28 216 86 393 258 512 497 53 106
147 370 141 394 -2 8 -29 -9 -72 -45z"/>
<path d="M1864 4747 c28 -92 484 -617 625 -722 41 -29 108 -35 118 -9 7 20
-31 60 -172 180 -121 103 -402 376 -509 494 -37 41 -65 67 -62 57z"/>
<path d="M3977 4713 c-15 -3 -25 -8 -22 -14 3 -5 22 -6 41 -3 30 5 34 3 34
-16 0 -18 -3 -19 -21 -9 -36 19 -13 -8 35 -40 l43 -30 1011 -2 1012 -2 70 58
c38 31 70 58 70 59 0 4 -2247 2 -2273 -1z"/>
<path d="M4216 4491 c-3 -5 0 -13 7 -19 25 -21 107 -51 122 -45 10 3 15 0 13
-8 -2 -9 11 -16 37 -20 22 -3 34 -7 26 -8 -8 0 -12 -3 -9 -6 3 -3 309 -5 680
-5 l675 0 107 51 c58 28 104 55 100 60 -7 12 -1751 12 -1758 0z"/>
<path d="M4703 4273 c-43 -8 -23 -21 67 -42 185 -44 366 -52 544 -26 128 19
242 48 239 60 -3 10 -804 17 -850 8z"/>
<path d="M2775 4138 c-40 -48 -41 -79 -2 -112 38 -31 157 -3 157 38 0 17 -92
116 -107 116 -6 0 -28 -19 -48 -42z"/>
<path d="M1695 4017 c-25 -24 -45 -48 -45 -54 0 -16 78 -113 96 -120 17 -6 33
6 84 67 l40 48 -48 51 c-26 28 -56 51 -65 51 -9 0 -37 -19 -62 -43z"/>
<path d="M2090 3856 l0 -36 473 0 c505 0 627 5 627 25 0 39 -15 40 -567 43
l-533 3 0 -35z"/>
<path d="M2145 3770 c-4 -6 -5 -34 -4 -63 l3 -52 -114 -5 c-114 -5 -115 -5
-118 -30 -4 -44 10 -52 99 -59 l84 -6 9 -97 c8 -90 11 -98 30 -98 18 0 21 6
22 48 5 166 8 201 15 196 5 -3 9 -61 9 -128 l0 -124 40 0 40 -1 0 215 0 214
-54 0 c-30 0 -58 -5 -61 -10z"/>
<path d="M2294 3758 c3 -13 6 -110 6 -215 l0 -193 46 0 c38 0 45 3 40 16 -3 9
-6 105 -6 215 l0 199 -46 0 c-43 0 -46 -2 -40 -22z"/>
<path d="M2430 3565 l0 -215 40 0 40 0 0 199 c0 110 -3 206 -6 215 -4 10 -18
16 -40 16 l-34 0 0 -215z"/>
<path d="M2554 3743 c3 -21 6 -118 6 -215 l0 -178 38 0 37 0 3 215 4 215 -47
0 -48 0 7 -37z"/>
<path d="M2714 3771 l-31 -6 -2 -207 -2 -208 45 0 46 0 0 215 c0 166 -3 215
-12 214 -7 -1 -27 -4 -44 -8z"/>
<path d="M2814 3771 c-2 -3 -4 -99 -4 -213 l1 -208 45 0 44 0 0 215 0 216 -40
-3 c-22 -1 -43 -4 -46 -7z"/>
<path d="M2940 3560 l0 -210 48 0 47 0 -3 210 -3 210 -44 0 -45 0 0 -210z"/>
<path d="M3072 3560 l-3 -210 52 0 52 0 -6 68 c-4 37 -7 131 -7 210 l0 142
-42 0 -43 0 -3 -210z"/>
<path d="M3203 3749 c3 -13 7 -108 8 -211 l2 -188 44 0 43 0 0 195 c0 215 3
204 -69 220 -32 7 -33 6 -28 -16z"/>
<path d="M7661 3755 c-111 -31 -205 -104 -251 -194 -31 -62 -27 -81 17 -81 20
0 65 5 99 11 54 9 67 16 89 45 33 43 57 46 49 6 l-6 -29 64 8 c34 4 113 12
173 18 61 6 136 14 168 17 53 6 57 5 57 -13 0 -34 -81 -57 -380 -109 -318 -54
-320 -55 -320 -77 0 -32 81 -102 147 -127 41 -16 87 -24 155 -28 83 -4 109 -1
188 22 170 49 295 129 462 298 98 99 194 215 185 224 -1 2 -34 -6 -72 -17
-101 -28 -238 -26 -390 7 -153 33 -354 41 -434 19z"/>
<path d="M3356 3637 c-10 -43 -19 -214 -12 -251 6 -32 10 -36 38 -36 20 0 29
4 26 13 -3 6 -2 66 3 132 7 114 6 121 -14 143 -26 28 -33 28 -41 -1z"/>
<path d="M3473 3404 c3 -91 8 -168 12 -172 18 -19 503 -7 536 13 5 4 -16 19
-48 34 -95 45 -291 160 -389 228 -51 35 -98 63 -104 63 -10 0 -12 -37 -7 -166z"/>
<path d="M7105 3420 c-71 -10 -164 -23 -205 -29 -111 -15 -327 -87 -356 -118
-50 -54 -22 -55 300 -8 221 32 399 68 469 94 22 9 27 17 27 46 l0 35 -52 -1
c-29 -1 -111 -10 -183 -19z"/>
<path d="M2128 3283 c-34 -4 -38 -7 -38 -33 0 -16 4 -32 10 -35 5 -3 60 -3
120 1 l111 7 -3 31 -3 31 -80 1 c-44 1 -97 -1 -117 -3z"/>
<path d="M2358 3263 c3 -16 10 -31 16 -35 13 -9 1021 -10 1053 -2 15 4 20 11
16 22 -14 42 -15 42 -564 42 l-526 0 5 -27z"/>
<path d="M1032 2964 c-62 -31 -91 -77 -99 -159 -9 -84 25 -144 156 -280 115
-118 135 -154 120 -209 -10 -35 -43 -72 -72 -80 -15 -3 -31 6 -59 33 -30 31
-38 46 -38 76 l0 37 -57 -7 c-32 -4 -60 -9 -63 -11 -9 -9 30 -136 51 -165 40
-57 136 -89 208 -69 96 25 158 122 148 228 -7 83 -32 123 -149 248 -57 60
-112 127 -122 148 -17 36 -17 41 -2 73 42 89 156 48 156 -57 0 -30 0 -30 55
-30 l55 0 0 33 c0 85 -50 164 -125 198 -55 26 -102 23 -163 -7z"/>
<path d="M2018 2980 c-92 -28 -141 -96 -141 -199 -1 -92 24 -135 153 -261 60
-58 113 -115 119 -127 6 -12 11 -40 11 -63 0 -47 -36 -90 -77 -90 -50 0 -103
58 -103 115 0 24 -2 25 -59 25 l-59 0 5 -42 c8 -62 49 -144 86 -172 102 -78
239 -44 300 74 25 48 28 63 24 117 -6 82 -39 133 -157 241 -93 86 -130 140
-130 189 0 32 24 65 58 83 49 24 112 -33 112 -102 0 -23 4 -24 50 -24 l50 1 0
48 c0 129 -122 223 -242 187z"/>
<path d="M2300 2928 l0 -58 74 0 c63 0 75 -3 79 -17 2 -10 1 -177 -1 -370 l-5
-353 55 0 55 0 7 165 c4 91 6 256 5 367 l-2 203 71 3 72 3 0 54 0 54 -205 3
-205 3 0 -57z"/>
<path d="M5233 2974 c-2 -7 -3 -31 -1 -55 l3 -44 70 -5 70 -5 3 -367 2 -368
55 0 55 0 0 370 0 369 78 3 77 3 -3 49 c-1 27 -3 51 -5 52 -1 1 -92 4 -201 6
-142 2 -200 0 -203 -8z"/>
<path d="M6780 2963 c-41 -21 -62 -40 -85 -77 l-30 -49 0 -281 c0 -265 1 -283
21 -320 11 -22 37 -54 58 -70 31 -26 47 -31 104 -34 89 -4 144 23 187 92 l30
49 0 281 0 281 -28 47 c-61 104 -155 134 -257 81z m146 -114 l29 -30 3 -242
c2 -133 1 -251 -2 -263 -3 -11 -18 -33 -32 -47 -35 -36 -75 -35 -116 2 -31 28
-32 29 -36 144 -2 64 -1 182 3 263 7 148 7 148 37 176 40 37 76 36 114 -3z"/>
<path d="M1392 2633 c3 -328 4 -351 24 -393 50 -109 164 -146 274 -90 45 23
64 44 89 100 19 42 21 65 21 388 l0 342 -53 0 -54 0 -6 -112 c-4 -62 -7 -216
-7 -341 l0 -229 -29 -29 c-40 -39 -71 -38 -110 6 l-31 36 0 334 0 335 -61 0
-61 0 4 -347z"/>
<path d="M2836 2968 c-16 -55 -61 -261 -85 -388 -16 -85 -46 -219 -65 -297
-20 -78 -36 -145 -36 -148 0 -3 25 -5 56 -3 l57 3 21 89 22 88 90 2 89 1 25
-95 25 -95 58 3 c31 2 57 4 57 5 0 15 -92 444 -132 620 l-53 227 -63 0 c-41 0
-64 -4 -66 -12z m74 -225 c0 -21 12 -94 25 -163 14 -69 25 -131 25 -137 0 -9
-20 -13 -66 -13 l-66 0 6 28 c3 15 16 81 27 147 12 66 24 132 26 148 8 40 23
33 23 -10z"/>
<path d="M3283 2973 l-53 -4 0 -337 c0 -185 -3 -374 -6 -419 l-7 -81 62 -4 61
-3 0 412 c0 226 3 418 6 427 3 9 2 15 -2 14 -5 -1 -33 -3 -61 -5z"/>
<path d="M3445 2555 c1 -233 3 -426 5 -428 3 -2 29 -1 58 1 l52 4 2 186 c1
103 1 225 -1 272 -1 62 1 81 9 70 5 -8 37 -96 69 -195 32 -99 73 -214 89 -255
l31 -75 49 -3 50 -3 6 313 c3 172 5 363 3 423 l-2 111 -52 0 -53 0 -2 -255 -3
-255 -54 154 c-29 85 -76 201 -102 257 l-49 103 -53 0 -52 0 0 -425z"/>
<path d="M4047 2793 c-25 -104 -48 -208 -52 -233 -4 -25 -19 -112 -35 -195
-15 -82 -31 -169 -34 -193 l-6 -43 57 3 c57 3 57 3 64 38 4 19 12 61 19 93
l11 57 84 0 83 0 12 -67 c24 -137 14 -123 81 -123 50 0 59 3 59 18 0 9 -14 89
-30 177 -17 88 -40 207 -50 265 -11 58 -34 167 -50 242 -17 75 -30 139 -30
142 0 3 -31 6 -69 6 l-69 0 -45 -187z m128 -133 c9 -58 23 -132 31 -164 7 -33
11 -63 8 -68 -3 -4 -32 -8 -65 -8 -58 0 -59 1 -59 28 0 15 11 85 25 157 14 71
25 143 25 160 1 54 17 6 35 -105z"/>
<path d="M4441 2556 l0 -426 127 0 c191 0 247 23 296 122 21 43 26 66 26 131
l0 79 -56 54 -56 53 30 39 c66 83 63 239 -6 305 -48 46 -96 60 -234 65 l-128
5 1 -427z m265 279 c20 -27 28 -99 14 -140 -16 -49 -47 -67 -107 -63 l-48 3
-3 50 c-2 28 -1 79 3 114 l7 63 60 -4 c43 -3 64 -10 74 -23z m15 -363 c30 -33
45 -105 30 -144 -5 -14 -24 -37 -41 -51 -26 -23 -41 -27 -91 -27 l-59 0 0 78
c0 42 3 101 7 131 l6 53 61 -5 c51 -5 65 -10 87 -35z"/>
<path d="M5019 2953 c-6 -16 -9 -155 -8 -363 1 -328 1 -337 -21 -388 -13 -29
-21 -54 -19 -57 3 -2 47 -7 98 -11 l94 -7 -9 259 c-9 257 -8 528 1 572 5 21 3
22 -60 22 -62 0 -66 -2 -76 -27z"/>
<path d="M5650 2967 c0 -8 11 -39 24 -68 13 -30 54 -144 91 -253 l68 -200 -7
-158 -6 -158 60 0 60 0 0 165 c0 151 2 169 25 232 45 120 155 436 155 445 0 5
-26 8 -57 6 l-57 -3 -54 -165 c-29 -91 -56 -172 -59 -180 -3 -8 -14 14 -25 50
-11 36 -37 117 -58 180 l-38 115 -61 3 c-47 2 -61 0 -61 -11z"/>
<path d="M6478 2648 c2 -320 2 -334 -18 -366 -37 -60 -84 -55 -133 14 -27 38
-36 45 -62 42 -36 -4 -42 -25 -25 -89 24 -87 119 -144 200 -120 53 16 104 61
126 114 17 38 19 78 22 390 l3 347 -58 0 -58 0 3 -332z"/>
<path d="M7150 2666 c0 -172 5 -337 10 -367 20 -107 98 -174 200 -173 89 1
158 52 180 132 5 21 11 188 12 380 l3 342 -51 0 -51 0 -6 -172 c-4 -95 -7
-249 -7 -341 l0 -169 -34 -34 c-19 -19 -41 -34 -49 -34 -9 0 -32 15 -51 34
l-36 33 0 169 c0 93 -3 247 -7 342 l-6 172 -54 0 -53 0 0 -314z"/>
<path d="M7640 2617 c0 -200 3 -392 6 -426 l7 -61 48 0 c27 0 50 1 51 3 1 1 4
79 7 172 l6 170 26 3 c24 3 29 -3 52 -60 13 -35 41 -116 61 -181 29 -94 40
-117 52 -113 9 3 35 6 60 6 l44 0 -65 187 c-36 102 -65 188 -65 190 0 1 13 9
30 18 51 27 72 84 73 200 1 93 -1 105 -26 148 -16 26 -47 60 -69 75 -39 25
-50 27 -170 30 l-128 4 0 -365z m230 238 c45 -23 65 -128 39 -204 -14 -39 -31
-49 -103 -57 l-56 -7 0 135 c0 74 3 138 7 141 12 13 84 7 113 -8z"/>
<path d="M8114 2778 c2 -112 5 -303 5 -425 l1 -223 50 0 50 0 0 118 c0 197 12
406 22 387 5 -9 22 -55 38 -103 15 -48 55 -157 88 -242 l61 -155 50 -3 51 -3
0 425 0 426 -50 0 c-27 0 -51 -1 -52 -2 -1 -2 -4 -120 -7 -263 l-6 -260 -22
75 c-34 118 -90 267 -136 363 l-42 87 -52 0 -53 0 4 -202z"/>
<path d="M8620 2555 l0 -425 175 0 175 0 0 54 c0 40 -4 55 -16 60 -9 3 -60 6
-115 6 l-99 0 0 125 0 125 94 0 94 0 4 55 3 55 -35 0 c-19 0 -64 3 -100 6
l-66 6 -1 118 -2 117 53 7 c30 3 81 3 114 0 59 -7 61 -6 67 18 4 14 5 40 3 59
l-3 34 -172 3 -173 2 0 -425z"/>
<path d="M8986 2972 c-4 -3 38 -145 105 -352 l50 -155 -1 -168 0 -168 58 3 57
3 6 180 5 180 48 120 c37 93 126 349 126 363 0 1 -26 2 -59 2 l-58 0 -52 -159
c-28 -87 -51 -165 -51 -173 0 -48 -19 -13 -51 94 -21 68 -46 149 -56 180 l-18
58 -53 -3 c-29 -1 -55 -3 -56 -5z"/>
<path d="M2458 1623 l-3 -128 -31 62 c-55 107 -115 183 -145 183 -17 0 -18
-16 -21 -190 l-3 -190 28 0 27 0 0 113 1 112 24 -30 c14 -16 48 -67 76 -112
40 -66 55 -83 74 -83 14 0 26 7 29 18 3 9 8 92 12 184 l7 167 -27 11 c-15 5
-31 10 -36 10 -5 0 -11 -57 -12 -127z"/>
<path d="M2815 1727 c-3 -12 -6 -69 -8 -127 l-2 -105 -56 95 c-75 126 -95 150
-125 150 -23 0 -24 -3 -24 -68 0 -38 -3 -124 -7 -190 l-6 -122 31 0 32 0 0
121 c0 110 2 120 16 108 8 -7 26 -33 39 -58 38 -75 113 -171 134 -171 17 0 19
12 25 118 3 64 7 148 8 186 1 68 1 70 -25 77 -23 6 -28 4 -32 -14z"/>
<path d="M3035 1735 c-168 -60 -140 -374 34 -379 107 -2 188 147 151 279 -12
44 -66 105 -93 105 -7 0 -21 2 -32 5 -11 3 -38 -2 -60 -10z m89 -66 c66 -31
52 -208 -19 -241 -61 -27 -115 29 -115 120 0 105 57 156 134 121z"/>
<path d="M6752 1736 c-5 -6 -24 -37 -41 -69 -18 -32 -36 -55 -39 -52 -4 3 -20
32 -37 63 -24 46 -36 58 -57 60 -41 5 -37 -27 14 -112 37 -62 42 -80 51 -165
5 -53 11 -98 12 -99 2 -2 13 -1 24 3 19 6 21 14 21 84 0 73 3 82 50 173 28 53
50 101 50 106 0 15 -38 22 -48 8z"/>
<path d="M7763 1743 c-21 -4 -23 -11 -25 -76 -1 -40 -2 -91 -1 -114 1 -48 -9
-55 -30 -20 -122 199 -128 207 -158 207 l-29 0 0 -185 c0 -153 2 -185 14 -185
8 0 21 -3 30 -6 14 -5 16 4 17 57 0 35 4 86 7 114 l7 50 42 -70 c53 -90 109
-155 134 -155 18 0 19 8 19 128 0 70 3 157 7 195 3 38 2 66 -3 66 -5 -1 -19
-4 -31 -6z"/>
<path d="M2118 1549 c-2 -105 -2 -192 -1 -193 2 -1 16 -1 33 2 l30 4 0 189 0
189 -30 0 -29 0 -3 -191z"/>
<path d="M3260 1723 c0 -21 37 -156 76 -277 27 -85 28 -87 57 -84 34 3 49 34
122 251 l44 127 -32 0 c-31 0 -33 -3 -69 -98 -21 -54 -41 -112 -44 -130 -4
-18 -10 -32 -14 -32 -9 0 -31 62 -49 135 -32 129 -30 125 -61 125 -22 0 -30
-5 -30 -17z"/>
<path d="M3582 1557 c-34 -101 -62 -185 -62 -188 0 -2 16 -4 35 -4 34 0 37 3
46 41 l11 42 56 4 c32 3 62 3 69 1 7 -3 16 -24 20 -46 7 -36 13 -42 36 -45 17
-2 29 2 33 11 6 16 -40 170 -85 287 -28 71 -31 75 -63 78 l-34 3 -62 -184z"/>
<path d="M3814 1731 c-2 -2 -4 -17 -4 -33 0 -27 2 -28 50 -28 l50 0 1 -67 c1
-124 14 -224 29 -233 40 -25 42 -16 38 145 l-3 155 42 -6 c39 -6 43 -4 49 20
12 49 6 51 -125 51 -68 0 -125 -2 -127 -4z"/>
<path d="M4134 1732 c-7 -5 -8 -64 -3 -187 4 -99 8 -181 8 -181 1 -1 12 -4 26
-6 l25 -5 0 193 0 194 -22 0 c-13 0 -28 -4 -34 -8z"/>
<path d="M4344 1726 c-17 -8 -42 -29 -55 -47 -21 -30 -24 -44 -23 -115 2 -91
18 -136 65 -173 95 -74 227 4 237 140 9 118 -56 209 -148 209 -25 -1 -59 -7
-76 -14z m130 -76 c30 -30 34 -134 7 -178 -41 -65 -111 -68 -137 -7 -16 40
-19 132 -4 170 18 47 94 56 134 15z"/>
<path d="M4635 1732 c-7 -4 -9 -71 -7 -184 4 -177 4 -178 27 -178 20 0 23 6
28 68 4 37 7 90 7 117 l1 50 20 -40 c11 -22 44 -75 72 -117 44 -65 56 -78 80
-78 l27 0 2 130 c4 256 7 233 -24 234 l-28 2 0 -114 c0 -137 1 -137 -96 14
-63 99 -82 116 -109 96z"/>
<path d="M5439 1733 c-3 -28 -5 -69 -7 -140 -1 -46 -5 -83 -9 -83 -5 0 -30 41
-58 91 -58 104 -78 129 -106 129 -19 0 -19 -6 -17 -182 3 -181 3 -183 26 -186
20 -3 22 1 23 50 1 29 4 80 8 112 l6 60 29 -54 c68 -125 146 -198 163 -153 11
27 -8 347 -20 355 -16 10 -37 10 -38 1z"/>
<path d="M5683 1560 c3 -100 7 -184 9 -185 2 -2 15 -6 31 -10 l27 -7 0 71 c0
69 1 71 25 71 21 0 31 -12 60 -70 32 -63 38 -70 65 -70 17 0 30 3 30 7 0 3
-14 37 -31 74 l-32 69 37 40 c41 46 46 79 16 127 -27 44 -44 51 -150 59 l-93
7 6 -183z"/>
<path d="M6000 1548 l0 -188 110 0 110 0 -6 28 c-4 15 -8 28 -9 29 -1 2 -31 4
-66 5 -69 3 -76 9 -78 71 -1 27 0 27 64 27 l65 0 0 30 0 30 -65 0 -65 0 0 45
0 45 74 0 c72 0 74 0 79 28 3 15 5 28 4 29 -1 0 -50 3 -110 5 l-107 3 0 -187z"/>
<path d="M6355 1731 c-30 -13 -76 -62 -91 -98 -8 -18 -14 -61 -14 -96 0 -54 4
-70 29 -103 59 -83 128 -100 200 -50 46 32 51 50 19 67 -19 10 -24 9 -36 -10
-19 -28 -70 -28 -105 0 -80 62 -44 229 49 229 19 0 34 -4 34 -10 0 -5 9 -14
19 -20 15 -7 25 -5 42 9 l23 19 -36 36 c-29 29 -43 36 -74 35 -22 0 -48 -4
-59 -8z"/>
<path d="M6883 1718 c-51 -37 -76 -90 -77 -167 0 -79 22 -123 82 -165 52 -35
102 -35 141 2 37 34 44 66 15 70 -11 2 -28 -6 -39 -18 -27 -30 -62 -25 -101
14 -30 30 -34 40 -34 88 0 63 15 97 52 118 25 13 30 13 55 -2 30 -18 83 -14
83 6 0 14 -35 49 -67 65 -34 17 -75 13 -110 -11z"/>
<path d="M7120 1551 l0 -190 90 -3 c87 -3 91 -2 97 19 10 43 -2 53 -67 53
l-61 0 2 152 1 151 -31 3 -31 4 0 -189z"/>
<path d="M7929 1711 c-57 -36 -79 -80 -79 -161 0 -76 19 -120 71 -161 53 -42
96 -47 154 -19 53 26 61 42 66 125 l4 60 -65 0 -65 0 0 -30 c0 -27 3 -30 28
-27 27 3 28 2 25 -35 -3 -36 -5 -38 -41 -41 -69 -6 -117 50 -117 133 0 87 79
151 139 113 15 -9 25 -9 45 0 34 15 33 28 -6 52 -48 29 -105 26 -159 -9z"/>
<path d="M5100 1550 l0 -180 30 0 30 0 0 180 0 180 -30 0 -30 0 0 -180z"/>
<path d="M7370 1653 c0 -43 -3 -129 -7 -190 l-6 -113 24 0 c13 0 29 4 35 8 8
4 14 71 19 190 l8 182 -37 0 -36 0 0 -77z"/>
<path d="M8940 1719 c-146 -4 -345 -10 -443 -12 -151 -5 -182 -8 -198 -23 -27
-25 -24 -68 7 -93 27 -21 47 -18 96 13 18 11 94 15 348 21 179 4 368 11 420
16 52 5 102 10 110 11 40 3 54 50 21 68 -11 5 -37 9 -58 8 -21 -1 -157 -5
-303 -9z"/>
<path d="M983 1713 c-18 -7 -16 -48 3 -64 18 -15 232 -26 622 -34 177 -3 206
-6 223 -21 23 -20 82 -22 104 -4 22 19 18 64 -8 88 -21 20 -31 21 -98 16 -41
-3 -188 1 -328 10 -244 15 -492 20 -518 9z"/>
</g>
</svg>
